# xmcd CD database file
# Copyright (C) 1993-1998 Ti Kan
#
# Track frame offsets:
#	150
#	17980
#	35267
#	48970
#	64037
#	75325
#	93407
#	109937
#	127337
#	143320
#	160885
#	174675
#	188367
#	204160
#
# Disc length: 2954 seconds
#
# Revision: 2
# Processed by: cddbd v1.4b41PL1 Copyright (c) Steve Scherf et al.
# Submitted via: CDValet v3.31 - Copyright (c) 1997 Greg Leichner
#
DISCID=ad0b880e
DTITLE=Various Artist - Hot Hits Country Vol. 50
DYEAR=1900
DGENRE=
TTITLE0=Bigger Than The Beatles - Joe Diffie
TTITLE1=(If Your Not In It For Love)I'm Outta Here - Shania Twai
TTITLE1=n
TTITLE2=When Boy Meets Girl - Terri Clark
TTITLE3=What I Meant To Say - Wade Hayes
TTITLE4=Out With A Bang - David Lee Murphy
TTITLE5=Heart Half Empty - Ty Herndon and Stephanie Bentley
TTITLE6=Wild Angels - Martina McBride
TTITLE7=Always Have Always Will - Shenandoah
TTITLE8=She Said Yes - Rhett Akins
TTITLE9=Grandpa Told Me So - Kenny Chesney
TTITLE10=She Can't Save Him - Lisa Brokop
TTITLE11=Pure Bred Redneck - Cooter Brown
TTITLE12=Some Things Are Meant To Be - Linda Davis
TTITLE13=Walkin Away - Diamond Rio
EXTD=
EXTT0=
EXTT1=
EXTT2=
EXTT3=
EXTT4=
EXTT5=
EXTT6=
EXTT7=
EXTT8=
EXTT9=
EXTT10=
EXTT11=
EXTT12=
EXTT13=
PLAYORDER=
